<?xml version="1.0" encoding="iso-8859-1"?>
<!-- Generator: Adobe Illustrator 19.1.0, SVG Export Plug-In . SVG Version: 6.00 Build 0)  -->
<svg version="1.1" id="Capa_1" xmlns="http://www.w3.org/2000/svg" xmlns:xlink="http://www.w3.org/1999/xlink" x="0px" y="0px"
	 viewBox="0 0 387.04 387.04" style="enable-background:new 0 0 387.04 387.04;" xml:space="preserve">
<g>
	<path style="fill:#CE0649;" d="M194.65,281.92h41.89c-3.77,20.32-21.63,35.75-43.02,35.75c-21.4,0-39.26-15.43-43.03-35.75h28.16
		v7.57c0,4.42,3.58,8,8,8c4.42,0,8-3.58,8-8V281.92z"/>
	<path style="fill:#F9C5EE;" d="M37.32,198.44v56.41C25.03,251.36,16,240.04,16,226.65C16,213.25,25.03,201.94,37.32,198.44z"/>
	<path style="fill:#F9C5EE;" d="M349.71,198.44c12.29,3.5,21.33,14.81,21.33,28.21c0,13.39-9.04,24.71-21.33,28.2V198.44z"/>
	<path style="fill:#FCD9EB;" d="M333.71,175.33v83.43c0,35.13-12.86,59.43-39.32,74.29c-22.6,12.69-55.6,18.86-100.87,18.86
		c-22.64,0-42.21-1.54-58.94-4.67c-16.74-3.13-30.64-7.85-41.94-14.19c-26.46-14.86-39.32-39.16-39.32-74.29v-83.43
		c0-63.31,42.19-116.94,99.92-134.29c43.98,0.56,67.41,32.31,67.41,55.3c0,17.6-14.33,31.93-31.94,31.93
		c-13.2,0-23.94-10.74-23.94-23.95c0-9.68,7.87-17.56,17.55-17.56c4.42,0,8-3.58,8-8c0-4.41-3.58-8-8-8
		c-18.5,0-33.55,15.06-33.55,33.56c0,22.03,17.92,39.95,39.94,39.95c26.43,0,47.94-21.5,47.94-47.93c0-16.61-8.35-34.47-22.32-47.79
		c-5.59-5.33-11.96-9.81-18.9-13.39C271.86,36.19,333.71,98.67,333.71,175.33z M289.6,233.17c0-8.49-6.89-15.37-15.37-15.37
		c-8.49,0-15.37,6.88-15.37,15.37s6.88,15.37,15.37,15.37C282.71,248.54,289.6,241.66,289.6,233.17z M253.27,273.92
		c0-4.42-3.58-8-8-8H141.76c-4.42,0-8,3.58-8,8c0,32.95,26.81,59.75,59.76,59.75S253.27,306.87,253.27,273.92z M128.18,233.17
		c0-8.49-6.89-15.37-15.37-15.37c-8.49,0-15.37,6.88-15.37,15.37s6.88,15.37,15.37,15.37C121.29,248.54,128.18,241.66,128.18,233.17
		z"/>
	<path style="fill:#333333;" d="M349.71,182.05c21.19,3.79,37.33,22.34,37.33,44.6c0,22.45-16.42,41.13-37.87,44.7
		c-3.02,34.41-18.77,59.83-46.95,75.65c-25.05,14.07-60.61,20.91-108.7,20.91S109.87,361.07,84.81,347
		c-28.18-15.82-43.92-41.24-46.94-75.65C16.41,267.78,0,249.1,0,226.65c0-22.26,16.13-40.81,37.32-44.6v-6.72
		c0-86.13,70.07-156.2,156.2-156.2c86.12,0,156.19,70.07,156.19,156.2V182.05z M371.04,226.65c0-13.4-9.04-24.71-21.33-28.21v56.41
		C362,251.36,371.04,240.04,371.04,226.65z M333.71,258.76v-83.43c0-76.66-61.85-139.14-138.28-140.17
		c6.94,3.58,13.31,8.06,18.9,13.39c13.97,13.32,22.32,31.18,22.32,47.79c0,26.43-21.51,47.93-47.94,47.93
		c-22.02,0-39.94-17.92-39.94-39.95c0-18.5,15.05-33.56,33.55-33.56c4.42,0,8,3.59,8,8c0,4.42-3.58,8-8,8
		c-9.68,0-17.55,7.88-17.55,17.56c0,13.21,10.74,23.95,23.94,23.95c17.61,0,31.94-14.33,31.94-31.93c0-22.99-23.43-54.74-67.41-55.3
		c-57.73,17.35-99.92,70.98-99.92,134.29v83.43c0,35.13,12.86,59.43,39.32,74.29c11.3,6.34,25.2,11.06,41.94,14.19
		c16.73,3.13,36.3,4.67,58.94,4.67c45.27,0,78.27-6.17,100.87-18.86C320.85,318.19,333.71,293.89,333.71,258.76z M37.32,254.85
		v-56.41C25.03,201.94,16,213.25,16,226.65C16,240.04,25.03,251.36,37.32,254.85z"/>
	<path style="fill:#0677CC;" d="M274.23,217.8c8.48,0,15.37,6.88,15.37,15.37s-6.89,15.37-15.37,15.37
		c-8.49,0-15.37-6.88-15.37-15.37S265.74,217.8,274.23,217.8z"/>
	<path style="fill:#333333;" d="M245.27,265.92c4.42,0,8,3.58,8,8c0,32.95-26.8,59.75-59.75,59.75s-59.76-26.8-59.76-59.75
		c0-4.42,3.58-8,8-8H245.27z M236.54,281.92h-41.89h-16h-28.16c3.77,20.32,21.63,35.75,43.03,35.75
		C214.91,317.67,232.77,302.24,236.54,281.92z"/>
	<path style="fill:#FFFFFF;" d="M194.65,281.92v7.57c0,4.42-3.58,8-8,8c-4.42,0-8-3.58-8-8v-7.57H194.65z"/>
	<path style="fill:#0677CC;" d="M112.81,217.8c8.48,0,15.37,6.88,15.37,15.37s-6.89,15.37-15.37,15.37
		c-8.49,0-15.37-6.88-15.37-15.37S104.32,217.8,112.81,217.8z"/>
</g>
<g>
</g>
<g>
</g>
<g>
</g>
<g>
</g>
<g>
</g>
<g>
</g>
<g>
</g>
<g>
</g>
<g>
</g>
<g>
</g>
<g>
</g>
<g>
</g>
<g>
</g>
<g>
</g>
<g>
</g>
</svg>
